<?xml version="1.0" encoding="UTF-8" standalone="no"?>
<!-- Created with Inkscape (http://www.inkscape.org/) -->

<svg
   version="1.1"
   id="svg1"
   width="960"
   height="965"
   viewBox="0 0 960 965"
   sodipodi:docname="carte incomplète.svg"
   inkscape:export-filename="carte incomplète.svg"
   inkscape:export-xdpi="96"
   inkscape:export-ydpi="96"
   inkscape:version="1.4.2 (f4327f4, 2025-05-13)"
   xmlns:inkscape="http://www.inkscape.org/namespaces/inkscape"
   xmlns:sodipodi="http://sodipodi.sourceforge.net/DTD/sodipodi-0.dtd"
   xmlns="http://www.w3.org/2000/svg"
   xmlns:svg="http://www.w3.org/2000/svg">
  <sodipodi:namedview
     id="namedview1"
     pagecolor="#ffffff"
     bordercolor="#000000"
     borderopacity="0.25"
     inkscape:showpageshadow="2"
     inkscape:pageopacity="0.0"
     inkscape:pagecheckerboard="0"
     inkscape:deskcolor="#d1d1d1"
     inkscape:zoom="1.2093264"
     inkscape:cx="480.01929"
     inkscape:cy="482.50001"
     inkscape:window-width="2560"
     inkscape:window-height="1369"
     inkscape:window-x="1912"
     inkscape:window-y="-8"
     inkscape:window-maximized="1"
     inkscape:current-layer="svg1" />
  <defs
     id="defs1" />
  <g
     id="layer2">
    <path
       style="fill:#000000"
       d="m 236.51571,133.02181 -9.64774,15.2025 -29.52792,32.15911 -1.16942,9.06303 -7.60125,6.72418 -20.46489,14.32542 c 0,0 1.16942,5.84712 0,6.13947 -1.16942,0.29236 17.54134,14.03307 17.54134,14.03307 l 12.86364,-3.21591 19.58783,-1.46178 18.12605,-1.46177 12.57129,-8.18596 13.74072,-9.94009 5.84711,-2.92356 1.16942,-4.38533 h 9.06303 l 8.18595,-3.50827 7.3089,-4.09298 13.44835,1.46178 9.35538,1.75413 4.67769,-2.6312 7.60125,4.97005 7.60125,8.47831 1.46178,3.50827 6.72418,-1.75414 8.18595,-9.06302 4.38534,-11.98658 -0.29236,-10.81716 4.67769,-4.09298 9.94009,0.87707 4.38534,6.43182 2.33884,4.97005 h 11.10952 9.94009 l 7.30889,-2.92356 6.43182,-7.8936 10.23245,-7.8936 15.20249,-3.21592 h 35.37503 6.13947 l 2.04649,-7.8936 5.84711,-6.43182 6.43183,-11.69423 v -12.27893 l 6.72418,-8.47832 6.43182,-3.80062 -8.77067,-3.21591 -4.97004,-4.67769 1.46178,-27.189076 -6.13947,-7.893602 -5.84712,-0.584711 -7.01653,-0.292356 -0.87707,-4.67769 -4.97004,-1.754134 -14.03307,2.923557 -4.09298,2.6312 -2.6312,25.43494 -10.23245,2.04649 -22.21903,-11.40187 V 71.334774 l -19.58783,-21.049605 -28.35849,9.940091 -4.38534,-2.046489 -22.80374,25.43494 -19.88018,1.461778 -7.60124,-4.970046 -10.23245,-2.631201 -12.27894,2.631201 -6.72418,6.431824 -6.13947,11.694225 -4.38533,7.308888 -0.58471,2.92356 10.81716,25.72729 -5.2624,2.92356 z"
       id="path9"
       inkscape:label="race-nain" />
    <path
       style="fill:#000000"
       d="m 187.69232,231.83802 13.74071,11.69422 -11.98658,20.75725 21.63432,27.77379 -11.10952,15.7872 -0.87706,15.49485 6.72417,7.60125 15.2025,7.8936 13.156,1.46178 6.72418,-8.47832 0.29236,-15.7872 3.80062,-15.20249 6.43182,-5.55476 14.91014,-0.87707 10.5248,4.38534 5.55476,2.04649 24.26552,-1.16943 2.04649,15.2025 4.09298,10.5248 11.40187,9.06302 14.91013,-0.29235 10.52481,-2.92356 12.57129,-5.2624 10.5248,-0.87707 15.49485,2.92356 29.23556,3.50827 16.37192,-1.46178 1.46178,-7.60125 3.80062,-7.01653 8.18596,-4.97005 8.47831,-6.43182 8.18596,-7.60125 9.64773,-4.97005 7.60125,1.46178 2.33884,1.75414 9.35539,-6.43183 26.312,-1.16942 6.72418,-2.6312 5.2624,-8.18596 -0.58471,-8.18596 2.04649,-8.47831 9.64774,-4.67769 10.23244,-0.58471 -0.87706,-17.54134 2.04649,-11.10951 4.09298,-5.84711 -14.32543,-16.66428 -2.6312,-5.84711 -4.38534,-2.92355 -4.67769,4.67769 -9.06302,-0.87707 -5.84711,-6.72418 -11.69423,-7.60125 -10.23245,-2.92355 -5.2624,-0.58472 -7.8936,-8.77066 -2.92356,-7.30889 -34.79032,-0.29236 -11.10951,0.87707 -13.44836,4.67769 -7.60124,8.18595 -8.47832,8.77067 -13.156,1.16943 -11.98658,-1.46178 -7.01654,-8.77067 -7.8936,-2.92356 h -3.80062 l 0.29235,16.66427 -3.50826,9.35538 -12.86365,9.06303 -3.21591,4.09298 -2.92356,11.69422 4.67769,6.43183 6.43182,7.01653 2.6312,4.97005 9.35538,-1.16943 4.38534,-2.04649 6.72418,2.33885 4.67769,-4.38533 1.75413,-6.43183 2.04649,-4.97004 7.60125,-1.75414 5.84711,1.75414 2.92356,5.55475 6.13946,5.84712 -3.50826,7.60124 -5.2624,5.2624 -10.81716,4.97005 -9.35538,4.38533 -8.18596,-0.58471 -6.13947,3.50827 -5.84711,-4.09298 -4.38534,1.16942 -6.43182,-6.13946 -6.13947,3.80062 -6.13947,0.29235 -1.46177,-4.97004 -2.33885,-2.92356 -2.92356,-1.46178 v -7.8936 l -5.55475,-3.21591 -6.43183,-2.92356 -3.50826,-4.67769 3.21591,-12.86364 1.16942,-9.9401 -7.8936,-4.09297 -11.98658,2.6312 -6.43183,3.50826 -3.21591,6.43183 2.04649,6.13947 -3.21591,2.33884 -4.97005,-1.75413 -7.8936,-0.29236 -4.67769,-5.55476 -2.04649,-7.8936 -2.6312,-0.58471 -21.63432,15.20249 z"
       id="path10"
       inkscape:label="race-elfe" />
    <g
       id="g2"
       inkscape:label="race-drakeide">
      <path
         style="fill:#000000"
         d="m 481.07119,57.886415 5.40858,4.970046 35.66739,-0.292356 5.2624,13.009826 34.79032,2.923556 2.92356,7.162713 -0.87707,10.670981 -3.21591,5.408579 3.50827,10.23245 -4.53152,2.19266 -14.32542,4.53152 -11.25569,-1.16943 -5.55476,-4.53151 -8.33214,-3.21591 -10.37862,-1.16942 -4.67769,-0.87707 -8.62449,-4.38533 -0.29236,-27.919967 -2.19267,-7.308891 -5.70093,-2.923556 -8.77067,0.438533 -3.21591,-3.654445 -2.92356,-2.192667 z"
         id="path11" />
      <path
         style="fill:#000000"
         d="m 574.77117,79.228376 29.52792,12.132759 14.61778,-11.694225 23.24228,6.578001 0.43853,2.04649 -8.47831,1.3156 -7.3089,9.209203 -7.16271,3.069736 -1.3156,7.16271 0.73089,4.67769 -1.60796,4.67769 -8.18595,0.87707 -3.80063,0.58471 0.14618,8.47831 -8.47831,2.77738 -5.55476,6.28565 -2.6312,4.09298 -0.29236,-4.53152 0.87707,-5.84711 -2.33884,-7.8936 -6.57801,-4.97005 -6.87035,-3.21591 -4.53151,-2.04649 -3.06974,-4.67769 -3.06973,-3.36209 v -4.82387 l 3.50826,-2.923552 -0.14617,-16.225738 -2.92356,-2.923556 4.53151,1.754133 z"
         id="path12" />
      <path
         style="fill:#000000"
         d="m 643.91328,89.753179 -4.23916,1.607956 -4.09298,-0.292356 -5.70093,7.893602 -7.74743,3.800619 -2.04648,2.04649 0.87706,5.40858 0.58471,5.99329 -3.21591,4.23916 -4.67769,1.46178 -4.67769,-0.43853 -1.46178,0.14617 0.14618,6.72418 1.60796,1.75414 5.40858,3.36209 4.23915,6.578 4.23916,9.2092 4.82387,13.88689 1.02324,3.06974 4.82387,3.80062 0.87707,6.87036 -2.48503,11.10951 -2.48502,11.10952 -1.90031,4.97004 v 7.60125 l 3.06973,0.58471 6.87036,1.02324 7.01654,5.11623 -0.29236,20.31871 13.30218,0.58471 4.09298,2.48503 1.46178,4.23915 0.29235,6.43183 0.58472,11.69422 4.38533,1.3156 5.84711,0.14618 5.40858,1.16942 2.19267,2.6312 0.87707,5.26241 0.87706,3.65444 4.09298,3.50827 7.8936,0.87707 h 9.50156 l 6.72418,-0.14618 -3.9468,-4.67769 1.16942,-2.6312 0.43854,-7.45507 0.87706,-2.92356 -3.36209,-1.3156 -2.6312,-4.53151 3.36209,-4.09298 1.46178,-5.84711 4.09298,-3.9468 2.6312,-2.33885 -5.2624,-4.53151 -3.50827,-4.38533 v -4.97005 l 3.80062,-6.43182 1.75414,-4.97005 -3.9468,-2.77738 -7.01654,-0.58471 -5.11622,-3.9468 -1.90031,-5.40858 1.02324,-6.72418 3.06974,-5.55476 -0.29236,-7.45507 -3.06973,-3.65444 -4.82387,-4.82387 -3.65445,-4.97004 -2.77738,-24.11934 -9.35538,-3.80063 -5.2624,-4.67769 -7.8936,-23.24227 -8.18596,-3.65445 z"
         id="path13" />
      <path
         style="fill:#000000"
         d="m 689.08222,146.61635 1.60796,11.25569 -0.29236,11.8404 4.97005,4.67769 1.16942,3.94681 3.36209,0.73088 1.3156,-2.77737 2.6312,-4.82387 3.21592,-4.23916 8.47831,-1.02324 5.70093,-0.58471 4.82387,-5.26241 4.53151,-2.92355 7.74743,-1.90031 7.45507,-1.90032 0.87706,-3.80062 -4.38533,-5.70093 -9.2092,-9.64774 -5.55476,-2.77738 -8.33214,0.14618 -5.2624,2.77738 -4.53151,4.67769 -9.50156,4.53151 z"
         id="path14" />
      <path
         style="fill:#000000"
         d="m 703.55383,194.27032 -0.14618,-10.81716 -2.19267,-2.04649 3.21591,-2.04649 2.04649,-4.09298 3.80063,-4.53151 h 6.87035 l 6.87036,-1.3156 3.9468,-4.23916 4.09298,-4.23915 8.03978,-1.60796 7.45507,-1.75413 -0.58471,9.35538 1.02324,5.11622 2.92356,3.80062 4.23916,1.16943 3.80062,0.29235 0.43853,2.19267 -4.97004,7.01653 0.14618,6.28565 1.90031,4.23916 2.77738,3.21591 5.2624,2.04649 4.09298,0.43853 1.75413,3.36209 -1.60796,4.38533 -7.30889,3.06974 -4.23915,2.77738 -0.43854,5.2624 1.3156,3.21591 -6.28564,-0.87707 -6.72418,-6.578 -2.33885,0.29236 -1.60795,6.578 -2.04649,0.87707 -3.80063,-1.3156 -2.92355,1.16942 -2.04649,1.60795 0.43853,4.82387 0.43854,1.90031 -11.98659,6.28565 -2.77737,-1.90031 -4.09298,-3.80062 -1.60796,-2.33885 1.02325,-3.65444 3.65444,-3.36209 0.73089,-6.13947 0.14618,-4.23916 -4.38534,-2.92356 -6.578,-0.43853 -3.21591,0.29236 -3.06973,-4.38534 -1.02325,-5.11622 3.21591,-4.82387 z"
         id="path15" />
      <path
         style="fill:#000000"
         d="m 734.10499,249.96407 -1.16942,4.97004 -0.29236,3.9468 -3.36209,2.19267 -2.77737,-0.73089 -0.29236,2.48502 1.90031,2.33885 0.43853,3.80062 -1.46177,2.48502 0.14617,2.33885 3.06974,0.14618 2.48502,1.75413 1.60796,1.3156 0.14618,-5.40858 1.90031,-2.6312 4.09298,-1.60795 3.06973,-2.63121 2.6312,-2.33884 6.28565,-0.29236 2.6312,0.73089 5.70093,-3.06973 1.3156,-2.48502 0.29236,-3.9468 2.33884,-3.06974 3.65445,-1.02324 1.16942,-1.3156 2.04649,-2.19267 0.73089,-3.06974 -2.04649,-2.6312 -4.97005,-0.43853 -4.82386,-1.90031 -2.19267,-0.58471 -1.60796,-1.90031 -3.36209,1.90031 -3.36209,2.77738 -0.87706,3.06973 -2.92356,0.58471 -4.67769,-0.58471 h -3.65445 l -2.92355,1.16942 -1.75414,2.77738 z"
         id="path16" />
      <path
         style="fill:#000000"
         d="m 763.92527,180.96814 -5.55476,5.84711 1.75413,7.16271 3.80063,4.53151 5.99329,0.73089 3.06973,2.6312 1.46178,4.97005 -2.04649,5.99329 -4.82387,3.06973 -5.2624,1.60796 -2.33884,4.67769 1.3156,3.36209 5.2624,1.75413 3.50826,-0.43853 2.19267,-2.04649 4.23916,0.29236 2.33884,1.75413 4.09298,-0.29236 3.80063,-1.75413 6.28564,1.16942 5.55476,2.04649 6.43182,3.65445 1.60796,3.50827 -0.58471,3.80062 -2.48503,1.46178 -3.21591,-0.14618 3.80063,3.06973 -0.14618,3.65445 -2.04649,2.92356 h -3.9468 l -3.36209,4.09297 -0.43854,4.38534 0.87707,5.99329 -0.58471,4.23916 3.21591,4.82386 4.97005,0.58471 5.70093,1.02325 2.6312,0.73089 2.48503,-1.46178 7.45506,-4.23916 8.47832,0.43854 5.84711,-0.29236 3.36209,1.46178 2.33885,5.40858 1.90031,5.2624 1.02324,7.60125 6.13947,2.6312 6.28565,0.73089 4.82386,3.65444 0.58471,4.09298 5.11623,-0.14618 3.06973,-4.38533 5.99329,-3.80062 c 0,0 1.16943,-3.50827 1.16943,-4.38534 0,-0.87707 -0.58472,-5.70093 -0.58472,-5.70093 l -3.50826,-5.11623 -3.06974,-3.36209 0.73089,-9.2092 2.04649,-2.48502 10.81716,-0.73089 10.96334,0.29235 5.99329,-2.19266 5.70093,-3.65445 4.09298,-3.50827 2.04649,-2.48502 -9.79391,-0.73089 -4.53152,-3.80062 -4.09298,-3.9468 -2.33884,-3.80063 -4.23916,-4.23915 -3.65444,-3.21591 -4.38534,-1.75414 -9.94009,-0.29235 -2.04649,1.3156 -10.81716,0.87706 -7.60124,-2.04649 -4.38534,-5.11622 -3.65444,-5.11622 -0.58471,-7.16272 -0.14618,-6.87035 -2.77738,-7.16272 -5.55476,-7.16271 -6.43182,-4.53151 -6.578,-1.46178 -5.84712,1.90031 -9.94009,3.80063 -7.45507,3.80062 -2.33884,1.3156 -2.19267,-7.16271 -4.38533,-2.63121 -6.72418,-1.16942 -8.33214,-2.04649 z"
         id="path17" />
      <path
         style="fill:#000000"
         d="m 797.34469,284.35251 -7.13207,-1.34373 -2.68745,-2.68744 -2.89417,3.30762 -4.03117,2.58409 -6.92534,-1.96391 -3.72108,-2.99753 -4.75472,1.55045 -1.65381,2.58408 c 0,0 -0.10336,3.30763 0.10336,3.72108 0.20673,0.41345 2.89418,0.93027 2.89418,0.93027 l 3.72108,0.41345 2.68744,2.58409 2.06727,1.9639 2.17063,0.62018 2.99754,-1.03363 1.75717,-1.44709 3.82445,-0.41345 c 0,0 3.51435,1.03363 4.13453,1.34372 0.62018,0.31009 7.02871,0.10336 7.02871,0.10336 l 3.82444,-1.24036 -0.72355,-2.58408 z"
         id="path18" />
      <path
         style="fill:#000000"
         d="m 917.55815,253.76469 1.46178,7.60124 -11.54805,38.44477 -7.30889,3.06973 4.82387,7.45507 5.2624,9.94009 1.90031,7.74743 -0.58471,8.47831 -4.09298,8.77067 -5.11622,5.11622 -2.33885,6.28565 0.43854,6.72418 1.46177,7.60125 -0.73088,3.21591 -6.43183,-3.06974 -1.16942,-4.23915 -1.02325,-9.50156 -1.75413,-7.60125 -3.21591,-5.55475 -5.40858,-2.48503 -2.77738,-4.38533 V 325.538 l -0.73089,-6.13947 -4.38533,-3.9468 -4.82387,-3.50827 -3.06974,-0.87707 -0.73088,-3.36209 2.04649,-1.3156 0.87706,-4.09298 5.70094,-3.80062 4.97004,-4.97005 0.87707,-7.74742 -0.43853,-5.99329 -4.67769,-4.53151 -0.87707,-5.99329 0.43853,-3.80063 5.40858,-0.58471 9.50156,-0.58471 10.5248,0.14618 5.11623,-3.06974 7.74742,-4.67769 z"
         id="path19" />
    </g>
    <path
       style="fill:#000000"
       d="m 561.32281,221.60557 9.06303,-1.46178 5.55475,-4.38533 3.50827,5.2624 -6.13947,7.01653 0.58472,7.01654 4.09297,4.09298 6.13947,1.16942 11.98658,-2.6312 12.5713,-4.09298 11.10951,-4.38533 4.97004,-6.43183 3.21592,-7.60125 4.09298,-0.87706 4.67769,1.46178 4.67769,3.21591 -0.58472,11.69422 2.04649,9.64774 5.84712,1.75413 9.64773,0.29236 1.75414,4.38533 1.46177,11.98658 v 6.13947 l 2.33885,3.50827 7.01653,0.29236 7.01654,0.29235 1.16942,2.92356 1.75414,5.84711 4.67769,5.84711 7.01653,2.04649 10.81716,0.58471 h 6.13947 l 1.46178,4.97005 3.50826,2.04649 6.43183,3.80062 3.80062,8.18596 3.80062,4.38533 4.09298,-1.46177 4.67769,-4.09298 9.35538,0.29235 7.01654,2.6312 11.69422,2.04649 7.01654,1.16943 2.33884,-1.46178 4.38534,1.75413 6.72418,1.75413 4.97004,-2.6312 6.43183,2.92356 7.30889,-2.92356 3.80062,-0.29235 1.16942,-6.43183 3.50827,-5.84711 4.38534,-12.27893 -2.33885,-4.97005 3.21591,-3.80062 6.13947,-2.6312 10.5248,-0.58472 4.38534,4.67769 v 11.69423 l 3.50827,4.67769 9.06302,2.92356 c 0,0 4.38534,-0.29236 4.67769,0.87706 0.29236,1.16943 2.6312,6.43183 2.6312,6.43183 l 1.46178,7.8936 6.72418,4.38533 5.2624,4.97005 1.46178,9.64774 1.46178,8.18595 0.87706,4.38534 5.55476,2.92355 5.84711,7.60125 1.16943,11.10951 1.16942,9.06303 6.72418,3.50827 -2.92356,4.67769 -5.2624,2.92355 -7.60125,6.72418 -10.23244,5.55476 -9.06303,-2.6312 -8.77067,1.46178 -4.67769,-3.50827 -5.2624,-5.55476 1.75414,-7.30889 -2.33885,-8.18596 -4.38533,-6.43182 -7.89361,2.04649 -7.8936,-2.92356 -6.43182,0.58471 -3.50827,2.92356 -9.35538,-12.86365 -6.72418,-3.21591 h -7.01653 l -2.33885,5.84711 -6.43182,2.92356 -3.21592,-4.09298 h -6.43182 l -1.75413,7.30889 -6.72418,-1.16942 -5.2624,0.87707 -8.18596,7.01653 -3.21591,2.04649 -5.2624,-0.87707 -6.13947,-4.67769 -2.04649,-6.43182 1.16942,-4.09298 -4.09298,-7.60125 -8.77067,-1.46177 h -10.81716 l -1.16942,3.80062 -11.40187,-0.29236 -3.50827,-5.55475 h -15.49484 l -8.47832,6.13946 -3.80062,5.26241 -3.50827,2.92355 -20.75725,-0.58471 -7.60124,-4.38533 -7.60125,-0.29236 -4.97005,2.33885 -5.55475,8.77067 -2.92356,2.6312 -3.21591,5.2624 -5.55476,2.6312 -4.97005,-1.75414 -4.38533,3.21592 -4.09298,3.50826 h -7.30889 l -4.09298,-5.55475 -11.98658,-1.16943 -13.44836,0.87707 -6.72418,-10.23245 -0.29235,-9.35538 -2.04649,-5.84711 -0.87707,-6.43182 -1.75413,-3.80063 -9.94009,-1.16942 -0.29236,-25.43494 -4.67769,-6.43182 -5.2624,-2.6312 -2.04649,-13.15601 6.13947,-2.04649 7.01653,-6.72418 1.46178,-11.69422 1.16942,-9.35538 5.2624,-3.21591 7.89361,-0.29236 7.01653,-7.8936 0.87707,-15.20249 -0.87707,-7.60125 z"
       id="path20"
       inkscape:label="race-hybride" />
    <path
       style="fill:#000000"
       d="m 774.1913,386.99229 13.43724,7.0287 11.16323,-5.16816 8.26907,0.62018 4.34126,1.03363 4.34126,-2.27399 5.16817,5.16816 -1.44709,5.99508 3.1009,8.06234 5.16817,3.30762 2.06726,8.26907 0.41346,7.64889 -2.89418,4.54798 -6.40852,-1.24036 -1.03364,4.13453 -6.82198,1.44709 -4.34126,-2.68745 -4.13453,2.48072 2.68745,5.58162 1.03363,6.82198 -3.1009,3.92781 c 0,0 -8.88925,3.30763 -9.71615,3.30763 -0.82691,0 -8.06234,-2.48072 -8.06234,-2.48072 l -5.78835,-5.3749 -2.48072,-7.23543 -3.51435,-1.44709 -6.61525,3.30763 -6.40853,-0.82691 -1.86054,-6.40852 3.1009,-3.92781 -0.62018,-4.54798 -0.62018,-4.34126 2.89417,-4.75472 1.65382,-7.85561 -1.24036,-6.2018 -0.41346,-3.1009 4.34126,-2.48072 1.65382,-5.16817 z"
       id="path21"
       inkscape:label="race-orc" />
    <path
       style="fill:#000000"
       d="m 252.61997,384.09812 6.2018,14.47086 -7.44216,21.49957 -9.50943,22.32648 -9.09597,8.68252 12.81705,5.78835 6.61525,13.64395 0.41346,16.53814 5.78834,10.74978 13.64396,7.44216 4.13453,1.65381 -11.57669,6.61526 -1.65381,6.2018 13.64396,5.37489 9.92288,5.78835 10.74978,15.29777 c 0,0 4.54799,2.06726 14.47087,5.37489 9.92288,3.30763 26.87446,4.54799 26.87446,4.54799 l 16.53813,5.78834 5.3749,5.3749 9.50942,8.26906 13.23051,14.47087 11.99014,11.16324 19.84576,21.08612 2.48072,24.80719 12.81705,25.63411 15.29778,-8.26907 12.81705,-9.50942 c 0,0 12.4036,-11.16324 13.2305,-12.81706 0.82691,-1.65381 6.61526,-9.92288 6.61526,-9.92288 l 20.67266,6.2018 -4.13453,21.08612 4.96144,11.57669 10.74978,12.4036 3.72108,11.16324 -7.44216,10.33634 -13.64395,16.53813 -4.13454,9.09597 -15.29777,11.16324 -13.64396,-0.41345 -18.19194,-3.72108 h -15.71123 l -17.77849,3.30762 -11.99015,1.24036 -14.47086,2.89418 -13.64396,-0.82691 -15.71123,-0.41345 -15.29777,1.24036 -9.92288,7.0287 -26.46101,-2.48072 -0.41345,15.71123 -5.37489,12.81705 -9.50943,7.85561 -14.05741,4.13453 -13.64396,-5.37489 -10.74979,-11.16324 -11.57669,-2.89417 -12.4036,-21.08612 -22.32648,-3.72108 -10.74978,-21.49957 12.4036,-19.4323 -28.11483,-19.84576 -0.41345,-21.49957 -20.67267,-18.6054 2.06727,-15.29778 9.50943,-5.37489 22.73993,-10.74978 3.72108,-4.13454 v -19.4323 l -24.8072,-11.16324 4.54799,-28.11483 24.80719,-13.64395 2.06727,-11.5767 -35.55698,-18.19194 0.8269,-13.64396 35.55699,-19.01885 -20.67267,-18.19195 -4.54798,-12.4036 5.78834,-14.05741 11.99015,-4.96144 14.05741,-8.26906 4.54799,-10.33634 0.41345,-10.74978 -0.82691,-7.85562 10.74979,-9.50942 16.53813,-1.65381 z"
       id="path22"
       inkscape:label="race-aisha" />
    <path
       style="fill:#000000"
       d="m 288.11648,380.2085 -1.90032,8.62449 5.2624,3.36209 3.94681,2.6312 c 0,0 3.65444,2.92356 4.23915,2.92356 0.58471,0 3.36209,-3.36209 3.9468,-3.21591 0.58471,0.14617 5.11623,1.3156 5.11623,1.3156 l 3.36209,0.87706 4.09298,-0.58471 1.16942,5.70094 -0.87707,3.9468 -2.48502,1.90031 -1.16942,2.33884 -2.6312,2.04649 -0.29236,7.30889 -3.36209,4.09298 -2.04649,4.97005 -0.87707,4.82387 c 0,0 -1.02324,7.74742 -1.02324,8.47831 0,0.73089 -0.43853,5.2624 -0.14618,5.84711 0.29236,0.58471 1.46178,4.97005 1.46178,4.97005 l 3.50827,2.48502 3.36209,-1.16942 2.92355,-3.80062 c 0,0 3.06974,-2.48503 3.65445,-2.48503 0.58471,0 4.23916,-1.75413 4.23916,-1.75413 l 2.48502,-4.38534 -1.16942,-2.77737 c 0,0 -0.87707,-1.75414 -2.33885,-1.75414 -1.46178,0 -4.82387,0 -4.82387,0 l -3.21591,-3.50827 c 0,0 -0.87707,-0.43853 -1.16942,-1.02324 -0.29236,-0.58471 3.21591,-4.67769 3.21591,-4.67769 l 4.67769,0.73089 c 0,0 2.77738,-1.3156 2.92356,-1.90031 0.14617,-0.58471 0.73089,-5.55476 0.73089,-5.55476 l 2.77737,-1.46178 2.33885,3.21591 -0.58471,3.50827 -2.48503,1.60796 c 0,0 -1.60795,3.36209 -1.46177,4.09298 0.14617,0.73089 1.60795,8.18595 1.60795,8.18595 l 5.11623,2.48503 4.53151,-2.19267 -1.75414,-4.23916 -1.46177,-3.9468 1.02324,-4.38533 3.06974,-3.80063 -0.73089,-5.11622 -2.19267,-3.80062 -3.06974,-1.3156 0.43854,-2.77738 c 0,0 -2.77738,-2.6312 -2.77738,-3.21591 0,-0.58471 -0.58471,-4.09298 -0.58471,-4.09298 l -3.65445,-2.77738 -0.43853,-4.67769 -3.36209,-3.36209 -0.73089,-4.97005 4.97005,1.46178 2.6312,-1.3156 -0.87707,-3.36209 -2.6312,-1.60795 -0.14618,-2.48503 2.33885,-0.87706 -1.16943,-4.38534 -2.77737,-1.16942 -4.09298,-2.92356 -4.97005,-1.75413 -4.23916,2.77738 -1.60795,-3.06974 -2.19267,-6.28564 -4.23916,7.8936 -2.33884,6.578 z"
       id="path23"
       inkscape:label="race-elfe-des-tenebres" />
    <path
       style="display:inline;fill:#000000"
       d="m 264.61011,513.09554 11.57669,-6.40852 13.43724,-16.74486 9.09597,-12.19687 9.3027,-2.89418 8.06234,3.1009 c 0,0 6.61525,5.3749 7.85561,6.82198 1.24036,1.44709 7.02871,4.54799 7.02871,4.54799 l 8.06234,0.41345 6.2018,0.82691 5.58161,3.1009 5.3749,4.75471 6.82198,-0.8269 c 0,0 6.61525,0.62018 7.44216,1.44708 0.8269,0.82691 4.54798,1.44709 4.96144,2.48072 0.41345,1.03364 3.30762,6.2018 4.13453,7.64889 0.82691,1.44708 3.51435,4.13453 3.51435,4.13453 l -4.75471,5.99507 -0.41345,6.40853 -5.3749,0.62018 -0.8269,2.48072 4.13453,6.61525 0.20673,4.75472 -6.61526,1.86054 -0.41345,3.9278 0.82691,3.72108 8.06234,3.51435 13.43723,-0.20672 11.36996,3.72108 4.13454,-0.62018 2.27399,-6.82198 6.82198,-1.65381 8.06234,2.06726 5.99507,-7.23543 12.61033,1.44709 8.68252,-2.89418 5.37489,-4.13453 5.16817,-4.96144 4.96144,-0.41345 3.72107,2.48072 c 0,0 1.86054,8.47579 2.06727,10.95651 0.20673,2.48072 1.65381,6.82198 1.65381,6.82198 l 6.82198,1.24036 5.78835,-2.06727 8.06234,-3.1009 8.06234,-2.89417 5.37489,-2.48072 2.48072,-9.50943 4.34126,-5.78834 7.02871,3.72108 5.78834,2.06726 2.274,6.2018 0.8269,4.13454 -3.30762,5.37489 -5.99508,5.78834 -4.34126,-0.41345 0.41346,3.72108 -3.92781,5.16817 -3.72108,1.86054 7.02871,6.61525 10.54306,4.13453 5.37489,3.30763 5.78835,4.75471 3.51435,3.30763 0.82691,9.71615 1.65381,6.82198 4.54799,3.51435 7.85561,2.89418 5.37489,2.68744 -1.44709,3.51436 -4.34126,2.06726 -3.1009,6.40853 -2.06726,5.78835 -4.13453,6.82197 -6.82198,3.51436 -10.33634,3.1009 -12.19687,-2.89418 -8.68252,-4.75471 -3.1009,-1.86054 -6.82198,4.96144 -21.91302,-7.64889 -6.61526,11.16324 -22.5332,18.81213 -17.77849,9.50943 -12.61033,-23.15339 -2.27399,-25.84083 -50.85476,-51.88839 -10.74978,-8.68252 -15.5045,-6.2018 -40.51842,-9.71615 -10.74979,-14.88432 -15.29777,-8.88925 -8.47579,-3.1009 z"
       id="path24"
       inkscape:label="race-gobelin" />
    <path
       style="fill:#000000"
       d="m 348.95458,332.20973 c 11.36997,34.73007 13.64396,43.20587 13.64396,43.20587 0,0 3.1009,13.02377 6.2018,14.47086 3.1009,1.44709 -2.68744,1.24036 -2.68744,1.24036 l -5.58162,15.09105 c 0,0 -1.03364,1.44708 2.89417,12.61032 3.92781,11.16324 11.99015,31.62918 11.99015,31.62918 l -9.92288,3.72108 -5.16817,6.40853 -1.86054,11.57669 -3.30763,11.78342 -4.75471,5.16816 14.05741,6.82198 12.61033,1.86054 6.82198,7.44216 1.86054,4.75471 4.96144,-1.65381 2.48072,-5.78834 c 0,0 4.34126,-2.274 4.75471,-1.44709 0.41345,0.82691 3.30763,5.16817 3.30763,5.16817 l 4.96144,3.10089 c 0,0 3.1009,-1.44708 4.34126,-2.06726 1.24036,-0.62018 2.89417,-1.03363 4.96144,0.20673 2.06726,1.24036 8.68252,4.13453 8.68252,4.13453 l -2.06727,4.75471 -2.89417,7.02871 3.30762,4.13453 6.2018,0.82691 c 0,0 1.65381,3.51435 1.65381,4.34126 0,0.8269 2.06727,6.40852 2.06727,6.40852 l 9.3027,1.44709 7.64889,-2.06727 6.82198,-3.9278 6.82198,-3.92781 6.82197,-1.44709 5.99508,7.64889 -0.20673,7.44216 v 5.58162 l 8.88925,-1.03363 6.82198,-1.44709 4.96144,-3.92781 8.88924,-0.62018 2.68745,-5.78834 0.82691,-7.02871 4.54798,-6.61525 c 0,0 7.64889,0 8.47579,0 0.82691,0 6.82198,-10.95652 6.82198,-10.95652 l 1.24036,-4.96143 -3.51435,-3.1009 c 0,0 0.41345,-7.64889 0.62018,-8.4758 0.20673,-0.8269 6.2018,-13.2305 6.2018,-13.2305 l 0.20673,-5.78835 -7.85562,-3.72108 -1.86054,-9.09597 0.20673,-8.06234 -5.78835,-3.1009 -11.99014,-0.62018 c 0,0 -3.30763,-1.03363 -5.78835,-1.65381 -2.48072,-0.62018 -5.58162,-8.06234 -5.58162,-8.06234 l 3.92781,-3.92781 5.58162,-7.44216 5.78834,6.61525 9.50943,-2.89417 7.02871,-0.20673 11.99014,6.61526 3.92781,4.75471 -1.03363,5.37489 -6.40853,0.82691 -3.51435,-0.62018 -4.96144,5.16817 v 6.82198 l -0.20673,7.0287 6.2018,1.65381 3.30763,4.75472 -0.20673,8.06234 -6.2018,15.91795 1.44709,3.51435 2.06726,4.96144 -1.44708,7.02871 -4.13454,7.44216 -5.99507,4.13453 7.23543,2.48072 4.34126,5.37489 -0.20672,5.58162 4.34126,-2.27399 2.89417,-4.13453 8.68252,1.44708 5.16816,0.41346 4.75472,5.99507 -1.44709,11.36996 -4.96144,2.274 -2.48072,0.8269 c 0,0 -1.03363,10.95652 -1.03363,11.78342 0,0.82691 0.20673,8.4758 0.20673,8.4758 l -4.13454,3.9278 0.20673,6.2018 c 0,0 1.24036,7.85561 1.44709,9.09597 0.20672,1.24036 2.68744,8.06234 2.68744,8.06234 l 5.78835,1.65382 7.85561,3.51435 5.99507,3.1009 8.26907,2.27399 6.40853,6.61526 6.61525,13.43723 7.64888,8.68252 8.26907,1.24036 7.44216,-2.06727 5.78835,-4.13453 0.8269,8.88924 4.13454,9.09598 3.72108,6.40852 -2.89418,11.36997 -4.75471,10.1296 0.41345,6.61526 2.48072,8.47579 4.75472,2.48072 5.58161,-2.27399 5.16817,-3.30763 2.48072,-6.61525 1.65381,-5.3749 8.88925,-2.06726 7.23543,-3.1009 -0.20672,-5.78835 1.44708,-3.72108 5.78835,-3.72108 7.0287,-0.20672 5.99508,-2.06727 1.24036,-4.96144 -1.86054,-6.61525 2.89417,-6.61526 5.58162,-3.72108 1.03363,-8.06234 -4.96144,-4.54798 -5.16816,-6.61525 0.62018,-16.53814 -5.3749,0.62018 -1.24035,-7.85561 -4.54799,-5.37489 -6.2018,-11.78342 4.13453,-3.92781 3.30763,-2.06726 2.27399,-2.89418 6.82198,-0.62018 9.92288,0.41346 3.92781,-3.30763 8.06234,1.03363 6.61525,-0.41345 0.82691,3.30763 7.0287,-2.274 7.85561,2.89418 7.64889,7.85561 1.44709,1.65381 7.44216,-1.03363 5.58162,1.24036 1.86054,6.40852 4.54798,5.16817 9.71615,-0.20673 5.99508,-3.51435 4.34126,-3.72108 8.47579,-1.24036 3.30763,-1.44708 -7.02871,-5.99508 1.03363,-4.34126 4.96144,-2.06726 1.86054,-5.78835 3.92781,-2.89417 c 0,0 6.61525,3.30762 6.61525,4.13453 0,0.82691 -0.20672,3.92781 -0.20672,3.92781 l 5.37489,3.72108 1.86054,7.0287 1.86054,5.58162 -3.1009,6.40853 4.75471,6.82198 3.30763,3.51435 3.51435,5.37489 2.27399,4.13454 -3.72108,3.30762 -4.54798,0.82691 -4.54799,3.30763 2.06727,3.9278 9.71615,0.82691 v 5.16816 l -2.06727,4.75472 -4.96144,0.8269 -2.27399,2.89418 -8.47579,2.48072 -3.51435,-5.78835 2.48072,-4.54799 -2.48072,-2.06726 h -9.50943 l -2.89417,2.48072 -1.86054,6.40852 -5.3749,5.3749 c 0,0 -5.16816,2.68744 -5.99507,2.89417 -0.82691,0.20673 -9.09597,1.24036 -9.09597,1.24036 l -1.86054,3.92781 2.06726,7.85561 4.13454,4.54799 5.99507,-0.20673 3.1009,5.99507 3.72108,4.13453 3.51435,3.51436 3.51436,6.2018 1.86054,5.37489 c 0,0 -1.86054,3.92781 -2.68745,4.54799 -0.82691,0.62018 -8.47579,2.68744 -8.47579,2.68744 l -5.58162,-2.48072 -2.89418,-3.72108 -7.85561,3.30763 -3.1009,3.92781 -4.96144,3.30762 5.16817,5.3749 3.1009,3.72108 1.03363,7.23543 5.99507,0.41345 3.30763,-3.30763 5.99507,-5.37489 4.13454,-1.24036 4.75471,3.92781 4.34126,6.82198 1.03363,4.96144 -1.65381,4.54798 -3.51435,-1.44708 -3.92781,-2.68745 -4.13453,-0.20673 -2.48072,5.99508 -2.274,2.06726 -4.34126,3.1009 -1.86054,2.48072 7.85562,10.74979 3.72108,5.37489 1.44708,4.75471 -0.20672,22.73994 0.8269,5.16816 12.61033,7.02871 5.78835,4.75471 3.72107,7.64889 2.48072,6.2018 5.99508,2.68744 6.2018,-19.4323 2.89417,-11.16324 5.78835,-4.13453 10.74978,-3.30763 5.16817,-4.54799 5.99507,-9.09597 0.82691,-12.61032 -5.58162,-8.26907 -3.72108,-9.09597 3.30762,-12.4036 -1.65381,-10.12961 -5.78834,-8.06234 -2.274,-9.71615 4.13454,-9.92288 8.88924,-7.02871 10.12961,-3.51435 5.58162,-9.3027 0.41345,-11.36996 -2.27399,-7.02871 0.20672,-5.78835 3.92781,-5.78834 2.48072,-7.85561 -2.06727,-10.74979 -5.58162,-7.02871 -7.64888,-5.37489 -2.89418,-4.54799 0.20673,-5.78834 0.62018,-9.50943 -2.89417,-7.64888 -2.68745,-7.64889 -2.48072,-3.92781 0.41345,-8.06234 c 0,0 2.89418,-5.16816 3.51436,-6.82197 0.62018,-1.65382 3.72108,-9.71616 3.72108,-9.71616 l 0.62018,-9.3027 -4.13454,-5.78834 -6.82197,-4.75472 -9.09598,-2.68744 -8.68252,-5.78835 -12.61032,-23.98029 -3.1009,7.23543 -6.2018,1.65382 -0.82691,-3.30763 -1.03363,-8.88925 -15.29777,5.16817 -2.06727,1.65381 -3.92781,-3.9278 -1.65381,-3.51436 -5.99507,2.274 -4.96144,0.20672 -3.1009,-4.54798 -6.2018,-5.58162 -4.96144,0.20672 -4.34126,-0.41345 -4.13453,-4.96144 -0.41346,-5.99507 -3.72108,2.48072 -3.1009,-0.41345 -2.48072,-2.274 -6.82198,-0.41345 -2.27399,-6.2018 -1.03363,-8.06234 5.99507,-2.89417 v -7.02871 l -6.40853,-6.40853 4.34126,-6.40852 2.06727,-3.51435 -8.26906,0.20672 -5.58162,-2.27399 -4.96144,5.37489 -6.2018,2.89417 -4.34126,-2.27399 5.37489,-2.27399 4.96144,-1.44709 -0.20673,-3.72108 4.54799,-1.86054 6.82198,2.68745 8.88924,1.24036 0.62018,-4.13453 -4.34126,-4.34126 -1.86054,-2.06727 6.40853,-4.13453 4.54799,-2.06727 -5.16817,-6.2018 v -4.34126 l 7.85561,-0.82691 4.75472,-3.72108 1.03363,-7.85561 1.44709,-6.2018 -2.06727,-5.58162 -5.16817,-8.26906 1.65382,-5.16817 -2.89418,-5.16817 -4.54798,-2.27399 -14.05741,1.65381 -4.54799,4.13454 -8.88925,-1.65382 -3.51435,-4.54798 -4.54799,-0.82691 -8.68252,0.62018 -6.40852,4.34126 -4.96144,4.13453 -1.65381,3.72108 -5.99508,1.86054 -19.01885,-0.20672 -6.2018,-4.13454 -6.61525,-1.86054 -3.51435,1.86054 -10.95652,12.61033 -4.54798,6.82198 -3.92781,1.65381 -1.24036,4.75472 -4.75471,1.65381 -2.89418,0.8269 -1.65381,3.1009 -3.72108,2.68745 -1.44708,2.27399 -4.13454,3.51436 -3.9278,1.03363 h -5.58162 l -5.58162,-2.48072 -1.03364,-2.68745 2.06727,-4.75471 4.13453,-2.68745 0.82691,-3.51435 0.62018,-1.86054 -0.41345,-2.89417 h -14.05742 l -14.05741,-1.24036 -6.40852,-9.92288 -2.89418,-24.60047 -3.1009,-1.44709 -8.26906,0.20673 -0.41346,-7.44216 -0.62018,-21.29285 -2.27399,-5.37489 -6.82198,-1.65381 -1.86054,-14.26414 -18.39867,-2.06727 -8.06234,3.51436 -2.48072,4.54798 0.82691,8.47579 0.20672,6.61526 -2.68744,4.13453 -0.41346,4.34126 -4.34126,2.89417 -7.44216,2.48072 -4.34126,2.68745 -1.24035,4.13453 -3.30763,0.82691 v 4.54799 l -1.24036,2.89417 -4.54799,-0.20673 -4.54798,0.41346 -4.75472,1.65381 -4.34126,2.68744 -3.51435,2.48072 -3.1009,-0.8269 -5.78835,-1.03364 -2.68744,-2.89417 4.13453,-5.58162 2.06727,-6.61525 -2.06727,-2.68745 -14.26414,2.06727 -47.13367,-5.37489 z"
       id="path25"
       inkscape:label="race-humain" />
    <path
       style="fill:#000000"
       d="m 720.07192,575.35588 8.47831,11.69423 10.52481,-0.29236 6.72418,9.35538 9.64773,2.92356 11.98658,-5.2624 7.60125,-4.38534 h 6.72418 l 4.09298,2.04649 c 0,0 0.87706,7.30889 1.75413,8.77067 0.87707,1.46178 4.09298,5.84711 4.09298,5.84711 l 1.46178,6.72418 -4.09298,6.43183 -3.50827,4.09298 -5.55475,1.75413 -3.21592,3.80062 -2.92355,5.55476 -0.29236,6.43182 c 0,0 -3.80062,4.09298 -5.84711,4.09298 -2.04649,0 -14.61778,1.46178 -14.61778,1.46178 l -1.46178,7.01654 -8.47831,-2.6312 -8.47832,3.80062 c 0,0 -2.6312,5.84711 -2.6312,8.18596 0,2.33884 -6.72418,-0.29236 -6.72418,-0.29236 l -4.67769,0.87707 v 7.8936 c 0,0 -2.33884,3.21591 -4.67769,2.6312 -2.33884,-0.58471 -5.2624,-2.04649 -6.43182,-1.75413 -1.16942,0.29235 -7.60125,4.09298 -8.47832,5.2624 -0.87706,1.16942 -5.2624,8.47831 -5.55475,9.64773 -0.29236,1.16943 -4.09298,10.81716 -4.09298,10.81716 l 0.58471,7.30889 3.80062,6.72418 4.38534,0.29236 0.87706,4.97004 -2.04648,3.80063 0.58471,6.43182 6.13946,3.21591 6.13947,0.29236 0.29236,-5.84711 4.67769,-2.6312 2.33884,-2.92356 0.29236,-6.13947 3.21591,-10.5248 6.72418,-5.84711 3.21591,3.21591 c 0,0 -2.04649,4.09298 -2.04649,5.84711 0,1.75413 0.58471,7.8936 0.58471,7.8936 l 6.72418,0.58471 2.92356,5.26241 -1.46178,6.43182 -6.13947,2.92356 0.29236,7.01653 0.29236,7.30889 -3.21592,3.80062 4.67769,4.38534 7.89361,-2.92356 1.46177,-3.80062 h 4.97005 l 4.67769,-7.60125 4.67769,3.21592 5.2624,8.47831 5.2624,5.84711 3.80063,7.60125 -2.33885,11.69422 1.46178,9.35538 3.80062,9.64774 7.8936,2.6312 7.60125,4.38533 2.04649,7.60125 4.97005,7.30889 5.84711,2.92356 1.46178,6.72418 -5.2624,12.57129 -16.66428,7.60125 -13.74071,-0.87707 -19.88018,-2.6312 -11.10952,-2.33885 -11.98658,1.46178 -9.94009,7.01654 -13.156,-1.75414 -9.94009,-4.97004 -8.47832,-8.18596 -10.5248,-4.09298 -11.98658,0.29236 -12.57129,-6.13947 -3.50827,-4.38534 -4.09298,-20.75725 1.16942,-21.34196 -3.50827,-14.32542 -5.84711,-5.55476 -10.23245,-5.84711 -3.21591,-11.98658 4.09298,-10.23245 4.38534,-8.18596 0.58471,-6.72418 -3.50827,-7.30889 5.84711,-3.21591 8.77067,-6.72418 3.21591,-9.06303 7.89361,-2.92355 7.8936,-2.33885 -0.58471,-8.47831 4.67769,-3.80062 h 11.98658 l 4.38533,-3.50827 0.29236,-10.5248 0.29235,-5.55476 6.43183,-5.84711 1.46178,-9.94009 -6.13947,-6.13947 -3.80063,-9.35538 1.75414,-11.98658 5.2624,-5.26241 1.46178,-6.72418 -7.89361,-4.97004 7.60125,-5.84711 9.35538,-1.75414 9.35538,-4.67769 5.84711,-3.21591 z"
       id="path26"
       inkscape:label="race-demi-elfe" />
  </g>
</svg>
